<mxfile host="app.diagrams.net" modified="2023-06-08T17:46:40.711Z" agent="Mozilla/5.0 (Windows NT 10.0; Win64; x64) AppleWebKit/537.36 (KHTML, like Gecko) Chrome/114.0.0.0 Safari/537.36" version="21.3.5" etag="-9n7AlC0AvqE24_Ip8_A" type="github">
  <diagram name="Page-1" id="F82nsfSRMT-NYJ6NPH0_">
    <mxGraphModel>
      <root>
        <mxCell id="0" />
        <mxCell id="1" parent="0" />
      </root>
    </mxGraphModel>
  </diagram>
</mxfile>
